<svg id="Layer_1" data-name="Layer 1" xmlns="http://www.w3.org/2000/svg" viewBox="0 0 113.95 18.47"><defs><style>.cls-1{fill:#fff;}</style></defs><title>Untitled-1</title><path class="cls-1" d="M6.17,3H7.86l5.24,14.2H11L7,5.71,3.08,17.16H.93ZM3.34,12.15h7.47v1.9H3.34Z" transform="translate(-0.93 -2.82)"/><path class="cls-1" d="M15.05,7h2V17.16h-2Zm6.15,4a2.31,2.31,0,0,0-.55-1.66,2,2,0,0,0-1.56-.59,2.08,2.08,0,0,0-1.51.52A1.93,1.93,0,0,0,17,10.75l-.2-2a3.6,3.6,0,0,1,1.22-1.41,3,3,0,0,1,1.68-.5A3.13,3.13,0,0,1,22.29,8,4.57,4.57,0,0,1,23.2,11v6.15h-2Z" transform="translate(-0.93 -2.82)"/><path class="cls-1" d="M26.22,3h2V5h-2Zm0,4.07h2V17.16h-2Z" transform="translate(-0.93 -2.82)"/><path class="cls-1" d="M31.24,7h2V17.16h-2Zm6.06,4a2.4,2.4,0,0,0-.53-1.66,1.91,1.91,0,0,0-1.49-.59,2.09,2.09,0,0,0-1.51.52,1.93,1.93,0,0,0-.53,1.46l-.21-2a3.55,3.55,0,0,1,1.23-1.41,2.9,2.9,0,0,1,1.67-.5,3.31,3.31,0,0,1,1.82.48A3.07,3.07,0,0,1,38.9,8.77,5.79,5.79,0,0,1,39.29,11v6.15h-2Zm6.05,0a2.31,2.31,0,0,0-.55-1.66,2.07,2.07,0,0,0-1.57-.59,1.82,1.82,0,0,0-1.43.57,2.31,2.31,0,0,0-.51,1.6L38.89,9a4,4,0,0,1,1.26-1.56,3,3,0,0,1,1.74-.55,3.49,3.49,0,0,1,1.87.48,3,3,0,0,1,1.18,1.41A5.6,5.6,0,0,1,45.35,11v6.15h-2Z" transform="translate(-0.93 -2.82)"/><path class="cls-1" d="M50.12,16.78a3.56,3.56,0,0,1-1.52-1.55,5.32,5.32,0,0,1-.52-2.46V11.63a6,6,0,0,1,.5-2.57A3.6,3.6,0,0,1,50,7.44a4.44,4.44,0,0,1,2.31-.56,3.7,3.7,0,0,1,2.17.63,4.08,4.08,0,0,1,1.37,1.84,8,8,0,0,1,.47,2.88v.66H49.52v-1.6h4.95a3.51,3.51,0,0,0-.64-1.93,1.82,1.82,0,0,0-1.48-.68,2.16,2.16,0,0,0-1.76.74,3.19,3.19,0,0,0-.62,2.1v1.29a2.65,2.65,0,0,0,.67,1.93,2.51,2.51,0,0,0,1.88.67,3.13,3.13,0,0,0,1.2-.24,3.42,3.42,0,0,0,1.07-.68l1.31,1.3a5.36,5.36,0,0,1-1.69,1.12,4.76,4.76,0,0,1-1.89.4A5.09,5.09,0,0,1,50.12,16.78Z" transform="translate(-0.93 -2.82)"/><path class="cls-1" d="M66.74,16.66A4.44,4.44,0,0,1,65,14.82a5.87,5.87,0,0,1-.62-2.75v-4A5.9,5.9,0,0,1,65,5.3a4.41,4.41,0,0,1,1.75-1.83,5.61,5.61,0,0,1,5.24,0A4.41,4.41,0,0,1,73.73,5.3a5.9,5.9,0,0,1,.62,2.75v4a5.87,5.87,0,0,1-.62,2.75A4.44,4.44,0,0,1,72,16.66a5.61,5.61,0,0,1-5.24,0ZM70.91,15a2.66,2.66,0,0,0,1-1.12,3.66,3.66,0,0,0,.37-1.69V8a3.59,3.59,0,0,0-.37-1.68,2.69,2.69,0,0,0-1-1.13,3.28,3.28,0,0,0-3.1,0,2.69,2.69,0,0,0-1,1.13A3.59,3.59,0,0,0,66.41,8v4.16a3.66,3.66,0,0,0,.37,1.69,2.66,2.66,0,0,0,1,1.12,3.2,3.2,0,0,0,3.1,0Z" transform="translate(-0.93 -2.82)"/><path class="cls-1" d="M77.38,7h2V17.16h-2Zm4.91,1.91a2.45,2.45,0,0,0-.93-.17,2,2,0,0,0-1.47.53,1.94,1.94,0,0,0-.52,1.45l-.21-2a3.84,3.84,0,0,1,1.22-1.41A2.88,2.88,0,0,1,82,6.88a3.77,3.77,0,0,1,1.25.2,2.79,2.79,0,0,1,1,.59L83,9.43A1.55,1.55,0,0,0,82.29,8.94Z" transform="translate(-0.93 -2.82)"/><path class="cls-1" d="M85.91,3h2V5h-2Zm0,4.07h2V17.16h-2Z" transform="translate(-0.93 -2.82)"/><path class="cls-1" d="M92.24,16.85a3,3,0,0,1-1.19-1.41,5.53,5.53,0,0,1-.41-2.22V11A5.61,5.61,0,0,1,91,8.74a3.08,3.08,0,0,1,1.17-1.41,3.38,3.38,0,0,1,1.84-.48,3,3,0,0,1,1.64.47A3.44,3.44,0,0,1,96.9,8.64l-.21,2.07a2.39,2.39,0,0,0-.23-1.11,1.56,1.56,0,0,0-.68-.69,2.27,2.27,0,0,0-1.08-.24,1.92,1.92,0,0,0-1.53.61A2.54,2.54,0,0,0,92.63,11v2.21a2.46,2.46,0,0,0,.54,1.7,2,2,0,0,0,1.53.6,2.16,2.16,0,0,0,1.08-.25,1.58,1.58,0,0,0,.68-.72,2.41,2.41,0,0,0,.23-1.12l.14,2.14a2.88,2.88,0,0,1-1,1.26,2.79,2.79,0,0,1-1.7.51A3.51,3.51,0,0,1,92.24,16.85Zm0,4a3.23,3.23,0,0,1-1.4-1.2l1.35-1.22a2.71,2.71,0,0,0,.93.83,2.3,2.3,0,0,0,1.14.29,2.39,2.39,0,0,0,1.77-.63,2.44,2.44,0,0,0,.62-1.78V7h2v9.83a5.17,5.17,0,0,1-.52,2.39,3.47,3.47,0,0,1-1.49,1.52,5,5,0,0,1-2.35.51A4.85,4.85,0,0,1,92.28,20.86Z" transform="translate(-0.93 -2.82)"/><path class="cls-1" d="M101.71,3h2V5h-2Zm0,4.07h2V17.16h-2Z" transform="translate(-0.93 -2.82)"/><path class="cls-1" d="M106.73,7h2V17.16h-2Zm6.15,4a2.31,2.31,0,0,0-.55-1.66,2,2,0,0,0-1.56-.59,2.08,2.08,0,0,0-1.51.52,1.93,1.93,0,0,0-.54,1.46l-.2-2a3.6,3.6,0,0,1,1.22-1.41,3,3,0,0,1,1.68-.5A3.13,3.13,0,0,1,114,8a4.57,4.57,0,0,1,.91,3.05v6.15h-2Z" transform="translate(-0.93 -2.82)"/></svg>