<svg id="Layer_1" data-name="Layer 1" xmlns="http://www.w3.org/2000/svg" viewBox="0 0 47.24 58.29"><defs><style>.cls-1{fill:#2323a4;fill-rule:evenodd;}</style></defs><title>arrow right</title><path class="cls-1" d="M.74,31a5,5,0,0,0,6.87,1.53L44.88,9.14A5,5,0,0,0,46.49,2.3,5,5,0,0,0,39.63.77L2.35,24.14A5,5,0,0,0,.74,31Z" transform="translate(0 0)"/><path class="cls-1" d="M.74,27.3a5,5,0,0,1,6.87-1.53L44.88,49.14a4.94,4.94,0,1,1-5.25,8.38L2.35,34.14A5,5,0,0,1,.74,27.3Z" transform="translate(0 0)"/></svg>