<svg id="Layer_1" data-name="Layer 1" xmlns="http://www.w3.org/2000/svg" viewBox="0 0 47.24 58.29"><defs><style>.cls-1{fill:#2323a4;fill-rule:evenodd;}</style></defs><title>arrow left</title><path class="cls-1" d="M46.49,31a5,5,0,0,1-6.86,1.53L2.35,9.14A5,5,0,0,1,.74,2.3,5,5,0,0,1,7.61.77L44.88,24.14A5,5,0,0,1,46.49,31Z" transform="translate(0)"/><path class="cls-1" d="M46.49,27.3a5,5,0,0,0-6.86-1.53L2.35,49.14A5,5,0,0,0,.74,56a5,5,0,0,0,6.87,1.53L44.88,34.14A5,5,0,0,0,46.49,27.3Z" transform="translate(0)"/></svg>