<svg id="Layer_1" data-name="Layer 1" xmlns="http://www.w3.org/2000/svg" viewBox="0 0 230 230"><defs><style>.cls-1{fill:#fff;}.cls-2{fill:none;stroke:#fff;stroke-miterlimit:10;stroke-width:6px;fill-rule:evenodd;}</style></defs><title>profile pic</title><path class="cls-1" d="M115,133.5a113.37,113.37,0,0,0-91.38,46.28H206.38A113.37,113.37,0,0,0,115,133.5Zm87.64,46.28a110.37,110.37,0,0,0-175.28,0c-.64.83-1.26,1.67-1.88,2.52a112,112,0,0,0,179,0C203.9,181.45,203.28,180.61,202.64,179.78Z"/><circle class="cls-1" cx="115" cy="75" r="47.5"/><path class="cls-2" d="M227,115a111.54,111.54,0,0,1-20.62,64.78q-.9,1.28-1.86,2.52a112,112,0,0,1-179,0q-1-1.25-1.86-2.52A112,112,0,1,1,227,115Z"/></svg>